<?xml version="1.0" standalone="no"?>
<!DOCTYPE svg PUBLIC "-//W3C//DTD SVG 20010904//EN"
 "http://www.w3.org/TR/2001/REC-SVG-20010904/DTD/svg10.dtd">
<svg version="1.0" xmlns="http://www.w3.org/2000/svg"
 width="500.000000pt" height="500.000000pt" viewBox="0 0 500.000000 500.000000"
 preserveAspectRatio="xMidYMid meet">
<metadata>
Created by potrace 1.14, written by Peter Selinger 2001-2017
</metadata>
<g transform="translate(0.000000,500.000000) scale(0.100000,-0.100000)"
fill="#000000" stroke="none">
<path d="M0 2500 l0 -2500 2500 0 2500 0 0 2500 0 2500 -2500 0 -2500 0 0
-2500z m3575 1255 c422 -67 737 -251 903 -528 123 -205 183 -478 169 -777 -33
-696 -366 -1077 -1052 -1203 -109 -20 -152 -22 -460 -22 -251 1 -385 5 -510
18 -93 10 -178 20 -187 23 -17 5 -18 63 -18 1045 l0 1039 -360 0 -360 0 0
-1050 0 -1050 -275 0 -275 0 0 1050 0 1050 -395 0 -395 0 0 200 0 201 1123 -1
c730 -1 1167 2 1252 9 208 18 237 19 495 15 162 -2 279 -8 345 -19z"/>
<path d="M3053 3390 c-39 -4 -76 -11 -82 -14 -8 -5 -11 -264 -11 -877 l0 -869
28 -11 c49 -20 365 -24 477 -6 306 49 491 183 583 425 84 216 102 576 41 816
-73 289 -262 459 -581 521 -96 19 -351 27 -455 15z"/>
</g>
</svg>
